<svg width="24" height="24" viewBox="0 0 24 24" fill="none" xmlns="http://www.w3.org/2000/svg">
<path d="M11.9999 13.32C12.7319 13.32 13.32 12.726 13.32 11.9999C13.32 11.2739 12.732 10.6799 11.9999 10.6799C11.2739 10.6799 10.6799 11.2739 10.6799 11.9999C10.6799 12.726 11.274 13.32 11.9999 13.32Z" fill="#A9A9A9"/>
<path d="M12 0C5.37001 0 0 5.37001 0 12C0 18.624 5.37001 23.9999 12 23.9999C18.6299 23.9999 23.9999 18.624 23.9999 12C24 5.37001 18.63 0 12 0ZM14.628 14.628L4.79998 19.2L9.37197 9.37197L19.2 4.79998L14.628 14.628Z" fill="#A9A9A9"/>
</svg>
