<svg width="270" height="270" viewBox="0 0 270 270" fill="none" xmlns="http://www.w3.org/2000/svg">
<rect width="270" height="270" fill="white"/>
<path fill-rule="evenodd" clip-rule="evenodd" d="M260.253 112.806C257.143 135.999 253.631 148.251 233.137 172.539C212.643 196.828 118.858 212.806 84.186 212.806C49.5141 212.806 6.78485 186.07 9.48162 155.093C12.1784 124.115 26.2478 98.796 59.9236 95.6792C94.3386 92.494 124.569 107.244 158.356 99.3333C187.567 92.494 196.505 66.4246 216.567 58.1998C257.143 41.5658 262.37 97.0281 260.253 112.806Z" fill="#5B60FD"/>
<path d="M239.379 124.134C238.233 126.077 223.721 135.908 214.918 137.363C213.215 137.645 211.355 137.742 209.875 136.852C209.001 136.327 208.35 135.507 207.731 134.697C206.317 132.843 204.967 130.94 203.686 128.992C203.013 127.968 202.345 126.899 202.116 125.695C201.511 122.508 204.08 119.645 206.619 117.625C212.457 112.982 219.292 109.6 226.524 107.775C227.804 107.452 229.161 107.179 230.43 107.545C232.488 108.141 233.719 110.224 234.504 112.218C235.29 114.211 235.902 116.392 237.472 117.851C237.831 118.184 240.525 122.191 239.379 124.134Z" fill="white"/>
<path fill-rule="evenodd" clip-rule="evenodd" d="M161.403 208.837C147.319 211.246 154.032 201.01 155.974 188.198C159.165 167.145 163.101 135.153 163.101 135.153C163.101 135.153 165.667 183.902 165.667 195.772C165.667 207.642 163.1 208.547 161.403 208.837Z" fill="white"/>
<path d="M146.355 197.239C146.714 200.629 147.093 204.091 148.534 207.18C147.748 200.184 146.962 193.187 146.176 186.191C146.079 185.327 146.108 184.227 146.902 183.875C147.575 191.775 148.578 199.647 149.907 207.464C150.065 208.392 148.671 208.922 147.888 208.399C147.105 207.877 146.855 206.859 146.677 205.935C145.38 199.199 144.666 192.351 144.548 185.493C142.896 185.818 141.738 187.419 141.404 189.069C141.07 190.719 141.392 192.422 141.714 194.075C142.749 199.393 143.785 204.711 144.821 210.029C145.305 212.517 145.79 215.087 145.255 217.565C143.199 208.179 141.547 198.706 140.303 189.179C124.53 198.824 104.206 200.617 86.988 193.884C83.2274 192.413 79.4928 190.464 77.0089 187.281C75.0523 184.773 74.0082 181.659 73.4612 178.526C71.5186 167.397 75.4995 156.045 80.9027 146.124C82.9528 142.36 85.2877 138.439 85.1223 134.156C85.0653 132.681 84.7473 131.049 85.6085 129.85C85.7304 130.072 79.971 88.8736 82.2814 79.7607C87.8436 57.822 105.913 54.8508 117.482 55.1214C125.244 55.303 174.447 65.0812 181.556 78.3785C190.899 95.8549 188.915 110.548 187.256 120.236C186.762 123.121 163.108 134.94 163.101 135C161.749 147.571 152.674 174.964 145.063 185.06C145.494 189.12 145.924 193.179 146.355 197.239Z" fill="white"/>
<path fill-rule="evenodd" clip-rule="evenodd" d="M32.7822 146.087C28.3462 144.316 23.0599 144.841 19.0606 147.45C18.6734 147.703 18.1168 147.421 17.9251 147.001C17.7334 146.581 17.8051 146.092 17.9031 145.641C19.1804 139.763 24.2688 135.265 29.9275 133.198C35.5863 131.131 41.776 131.126 47.7912 131.479C48.3881 131.514 49.0119 131.561 49.5211 131.874C50.0302 132.186 50.3728 132.856 50.119 133.396C47.7527 138.435 45.9702 143.746 44.8184 149.191C44.6316 150.074 43.7168 150.66 42.8158 150.733C41.9148 150.807 41.0319 150.475 40.2142 150.09C37.6659 148.89 35.3981 147.131 32.7822 146.087" fill="white"/>
<path fill-rule="evenodd" clip-rule="evenodd" d="M169.131 57.3525C169.351 53.9806 169.097 50.5781 168.378 47.2763L168.363 47.2059C168.241 46.6476 168.115 46.0734 168.228 45.5147C168.476 44.279 169.849 43.5352 171.109 43.5611C172.369 43.5871 173.536 44.1886 174.652 44.7761C180 47.5934 185.444 50.4819 189.655 54.8187C189.787 58.3298 188.959 61.7946 188.143 65.215L188.066 65.5365C184.656 79.8325 181.863 94.2758 179.699 108.813C179.492 110.206 179.098 111.85 177.777 112.337C176.829 112.688 175.727 112.24 175.053 111.487C174.38 110.733 174.058 109.733 173.833 108.748C173.279 106.317 173.212 103.776 173.638 101.319C173.898 99.8171 174.339 98.3558 174.779 96.8941C175.174 95.5818 175.57 94.2692 175.835 92.9264C176.1 91.5836 176.234 90.2187 176.364 88.8561C177.054 81.6104 177.64 74.3547 178.12 67.0921C178.188 66.0658 178.25 65.0072 177.914 64.0352C177.316 62.3063 175.574 61.2136 173.815 60.7125C173.511 60.6262 173.203 60.5527 172.895 60.4793L172.895 60.4793C172.178 60.3084 171.462 60.1376 170.808 59.8044C169.873 59.3281 169.062 58.3995 169.131 57.3525ZM172.398 57.0754C174.885 57.6001 177.316 58.3926 179.634 59.4346C180.101 59.6444 180.592 59.89 180.844 60.3354C181.05 60.6991 181.062 61.1371 181.068 61.555C181.141 66.4637 181.156 71.3854 180.637 76.2671C180.325 79.1903 179.823 82.088 179.321 84.9854L179.321 84.9875C179.162 85.9038 179.003 86.8201 178.851 87.7372C178.094 92.2791 177.485 96.8455 177.025 101.427C176.692 104.751 176.447 108.187 177.481 111.364C178.012 111.267 178.216 110.628 178.317 110.098L187.872 59.7311C188.104 58.5108 188.335 57.2491 188.062 56.0373C187.585 53.9158 185.702 52.4407 183.886 51.2437C180.391 48.9395 176.671 46.9771 172.796 45.3935C172.473 49.2779 172.341 53.178 172.398 57.0754ZM177.312 90.1541C179.062 81.1719 179.852 72.0031 179.666 62.854C179.652 62.1629 179.615 61.4204 179.192 60.8735C178.882 60.4727 178.409 60.238 177.947 60.031C176.211 59.2535 174.386 58.6749 172.519 58.3103C171.979 58.2047 171.185 58.3191 171.208 58.8691L177.918 61.6417C178.312 61.8043 178.731 61.9883 178.953 62.3514C179.171 62.7076 179.15 63.155 179.122 63.5717L177.312 90.1541ZM171.069 44.5051C170.516 44.1384 169.717 44.5164 169.408 45.1042C169.1 45.6919 169.147 46.3956 169.217 47.0556C169.32 48.0238 169.454 48.9926 169.589 49.9616C169.964 52.6498 170.338 55.3391 170.02 58.0217C170.527 58.1958 171.094 57.8382 171.34 57.3615C171.586 56.8848 171.592 56.3249 171.593 55.7884L171.61 46.1145C171.611 45.5233 171.562 44.8318 171.069 44.5051ZM176.037 111.145C175.732 108.755 175.652 106.335 175.799 103.93C175.877 102.644 176.02 101.362 176.162 100.08L176.162 100.08L176.162 100.08C176.351 98.3853 176.54 96.6911 176.579 94.9874C175.186 99.1351 174.659 103.572 175.044 107.931C175.144 109.064 175.33 110.253 176.037 111.145ZM176.804 92.5371C177.028 92.4366 177.122 92.1216 176.99 91.9145C176.762 92.0268 176.665 92.3447 176.792 92.5648L176.804 92.5371ZM174.72 71.7636C163.63 64.9241 151.09 60.8263 138.549 57.2904C134.541 56.1601 130.498 55.077 126.359 54.6132C114.094 53.2392 101.661 57.4709 91.4625 64.4215C87.3725 67.209 83.4265 70.6379 81.6593 75.2613C80.3482 78.6917 80.3573 82.4682 80.4837 86.1385C80.9198 98.7967 82.5441 111.38 84.1664 123.942C85.4348 123.713 85.5601 121.959 85.3764 120.683C83.6894 108.969 82.7436 97.1476 82.5464 85.314C82.4911 81.9957 82.5084 78.5937 83.6568 75.48C85.7355 69.8434 91.097 66.1571 96.3578 63.2561C102.984 59.6022 110.187 56.5306 117.752 56.3676C126.916 56.1701 135.602 60.2349 143.607 64.6992C148.07 67.188 152.595 69.9673 155.434 74.216C158.012 78.0738 158.948 82.7755 159.625 87.3658C161.772 101.935 161.85 116.72 161.925 131.446C161.928 132.042 161.891 132.724 161.425 133.095C161.106 133.348 160.67 133.379 160.263 133.401L145.313 134.179C152.28 136.182 160.008 135.392 166.425 132.021L183.036 123.294C184.587 122.479 186.187 121.624 187.256 120.236C188.726 118.327 188.937 115.758 189.006 113.349C189.262 104.451 188.373 95.5206 186.366 86.8482C187.062 96.2297 187.158 105.656 186.655 115.049C186.569 116.654 186.44 118.337 185.568 119.686C184.636 121.127 183.016 121.943 181.473 122.693L163.545 131.406C164.287 117.477 163.712 103.478 161.829 89.6565C161.196 85.0079 160.388 80.2942 158.261 76.1126C153.233 66.2307 142.106 61.3424 131.821 57.2003C147.197 61.6987 162.748 66.2715 176.581 74.3527C176.761 73.2363 175.683 72.3572 174.72 71.7636ZM232.013 114.283C232.81 116.337 233.93 118.527 235.99 119.31C236.478 119.347 236.769 118.7 236.609 118.238C236.476 117.852 236.161 117.57 235.852 117.294L235.852 117.294C235.82 117.265 235.788 117.237 235.757 117.209L235.729 117.183C235.71 117.166 235.69 117.148 235.671 117.131C234.361 115.913 233.717 114.192 233.084 112.496C232.958 112.161 232.833 111.827 232.704 111.498C231.918 109.504 230.687 107.421 228.629 106.825C227.361 106.459 226.003 106.732 224.723 107.055C217.491 108.88 210.656 112.262 204.819 116.905C202.279 118.925 199.71 121.788 200.316 124.975C200.544 126.179 201.212 127.248 201.885 128.272C203.166 130.22 204.516 132.123 205.931 133.977C206.549 134.787 207.201 135.607 208.075 136.132C209.554 137.022 211.414 136.925 213.118 136.643C221.92 135.188 229.455 129.718 236.624 124.407C236.997 124.13 237.385 123.836 237.578 123.414C237.772 122.991 237.689 122.404 237.279 122.186C236.809 121.936 236.254 122.281 235.835 122.609C229.164 127.833 222.038 132.937 213.766 134.771C212.198 135.119 210.469 135.324 209.059 134.556C208.003 133.982 207.29 132.949 206.617 131.953L202.444 125.779C202.093 125.259 201.728 124.7 201.715 124.073C201.702 123.445 202.21 122.766 202.832 122.847C208.681 123.608 214.558 124.155 220.447 124.486C220.916 124.513 221.406 124.534 221.834 124.339C222.384 124.087 222.719 123.531 223.013 123.002C225.506 118.507 227.411 113.687 228.662 108.702C230.326 109.895 231.103 111.916 231.844 113.844L231.847 113.851L231.947 114.112L232.013 114.283ZM226.864 108.307C225.75 112.476 224.102 116.502 221.972 120.255C221.615 120.884 221.219 121.532 220.594 121.898C219.8 122.363 218.812 122.275 217.897 122.173L203.327 120.547C205.744 117.353 209.335 115.28 212.924 113.498C216.32 111.812 219.807 110.308 223.364 108.995C224.49 108.579 225.671 108.176 226.864 108.307ZM146.355 197.239C146.715 200.629 147.093 204.091 148.534 207.18L146.176 186.191C146.079 185.327 146.108 184.227 146.903 183.875C147.575 191.775 148.578 199.647 149.907 207.464C150.065 208.392 148.671 208.922 147.888 208.399C147.105 207.877 146.855 206.859 146.677 205.935C145.38 199.199 144.666 192.351 144.548 185.493C142.896 185.818 141.738 187.419 141.404 189.069C141.07 190.719 141.392 192.422 141.714 194.075L144.821 210.029C145.305 212.517 145.79 215.087 145.255 217.565C143.2 208.179 141.547 198.706 140.303 189.179C124.531 198.824 104.207 200.617 86.9882 193.884C83.2276 192.413 79.4929 190.464 77.0091 187.281C75.0525 184.773 74.0084 181.659 73.4614 178.526C71.5188 167.397 75.4997 156.045 80.9029 146.124C81.0435 145.866 81.1856 145.607 81.328 145.347L81.3283 145.347C83.2619 141.82 85.2766 138.145 85.1225 134.156C85.1123 133.893 85.0938 133.624 85.0751 133.354L85.0751 133.354V133.354V133.354V133.354V133.354V133.354C84.9895 132.112 84.9015 130.834 85.6087 129.85C86.5573 131.576 86.9185 133.618 86.6197 135.564C102.949 134.861 119.302 134.72 135.641 135.14C135.832 135.891 134.743 136.24 133.969 136.228C118.721 136.001 103.466 136.261 88.2344 137.007C87.7521 137.031 87.2458 137.062 86.8368 137.319C86.4066 137.589 86.156 138.063 85.9248 138.516C81.602 146.974 77.265 155.555 75.1755 164.821C74.101 169.586 73.6895 174.802 75.8917 179.162C76.7272 180.816 77.9088 182.277 79.2282 183.578C86.3109 190.564 96.9169 192.706 106.864 192.539C113.212 192.432 119.547 191.519 125.667 189.83C132.156 188.038 138.627 185.215 143.056 180.146C145.657 177.169 147.425 173.564 148.973 169.927C151.929 162.982 154.196 155.744 155.73 148.354C156.691 148.556 156.705 149.915 156.483 150.872C153.74 162.707 150.551 175.322 141.515 183.443C133.354 190.778 121.854 193.053 110.898 193.666C104.57 194.021 98.1415 193.91 92.0119 192.297C85.8823 190.684 80.0296 187.456 76.1382 182.453C77.2732 186.78 81.1177 189.869 85.1202 191.868C95.6292 197.115 108.039 196.838 119.643 195.014C127.373 193.799 135.307 191.804 141.322 186.801C146.464 182.523 149.741 176.415 152.208 170.198C154.938 163.316 156.832 156.103 157.835 148.768C158.459 148.373 158.922 149.477 158.843 150.211C157.491 162.783 152.674 174.964 145.063 185.06L146.355 197.239ZM139.046 218.736C138.376 217.604 137.944 216.331 137.788 215.024L136.824 218.289L134.393 209.017C134.204 208.297 133.745 207.397 133.018 207.552C132.311 207.702 132.231 208.672 132.337 209.388C132.866 212.985 133.877 216.511 135.332 219.843L132.747 217.574C132.621 218.654 132.905 219.777 133.53 220.667C132.183 219.675 130.376 219.337 128.762 219.775C129.916 221.378 131.482 222.681 133.268 223.524L131.083 220.474C132.849 221.494 134.699 222.367 136.608 223.083L134.757 220.762L137.044 221.396C135.294 217.414 133.511 213.28 133.554 208.931C134.216 212.469 135.186 215.95 136.448 219.32C136.662 219.892 136.9 220.482 137.356 220.888C137.812 221.293 138.552 221.446 139.03 221.066C139.401 220.771 139.51 220.262 139.594 219.796L140.624 214.083L141.755 221.168C142.613 219.001 145.403 218.458 147.734 218.443C150.812 218.424 153.912 218.763 157.005 219.101L157.005 219.101C162.58 219.711 168.129 220.317 173.47 218.818C173.313 219.644 173.039 220.447 172.658 221.196C176.968 220.569 181.329 220.294 185.684 220.374C187.523 220.408 189.368 220.505 191.213 220.602H191.213H191.213H191.213H191.213H191.213H191.213H191.214H191.214C196.09 220.857 200.967 221.113 205.745 220.208L174.033 219.929C174.629 219.895 175.085 219.202 174.882 218.641C174.679 218.08 173.885 217.84 173.405 218.194C173.094 217.203 171.692 216.762 170.868 217.397C171.346 215.925 172.289 214.609 173.53 213.684C172.13 213.609 170.708 214.038 169.582 214.874L172.993 199.088C172.705 198.84 172.224 199.006 172.011 199.322C171.8 199.634 171.776 200.03 171.754 200.407L171.753 200.419C171.434 205.809 169.533 211.096 166.347 215.456L165.096 211.837L163.303 216.161C162.49 215.531 161.337 215.372 160.385 215.758C160.628 216.683 161.368 217.461 162.279 217.75L162.703 216.613L165.504 218.49C164.434 217.368 164.202 215.532 164.96 214.179L166.655 217.022L169.94 210.524C169.959 213.133 168.841 215.599 167.745 217.967C168.936 217.034 169.96 215.888 170.754 214.6C171.52 215.956 170.683 217.776 169.351 218.583C168.018 219.391 166.37 219.435 164.813 219.369C162.438 219.269 160.045 218.97 157.654 218.672C152.286 218.003 146.933 217.336 141.833 218.916L141.098 212.136C139.975 214.166 139.272 216.427 139.046 218.736ZM171.041 218.917C170.926 218.779 170.926 218.558 171.042 218.421L171.135 218.456C171.291 218.084 171.946 218.114 172.066 218.5C171.764 218.718 171.409 218.862 171.041 218.917ZM188.367 146.881C184.674 145.014 180.278 145.518 176.178 146.08C175.02 146.239 173.839 146.405 172.79 146.921C171.74 147.437 170.826 148.371 170.645 149.526C160.633 148.276 151.037 143.869 143.565 137.088C141.943 135.616 140.288 133.52 141.018 131.455C141.247 130.806 141.693 130.258 142.157 129.75C145.641 125.93 150.444 123.633 155.12 121.428C149.82 121.893 144.735 124.47 141.228 128.47C140.424 129.387 139.683 130.411 139.406 131.598C138.723 134.53 141 137.281 143.279 139.247C150.551 145.524 159.697 149.599 169.226 150.809C169.798 150.882 169.827 151.685 169.775 152.259C169.543 154.811 170.934 157.301 172.861 158.989C174.789 160.676 177.204 161.69 179.6 162.598C187.02 165.408 194.721 167.478 202.551 168.767C203.068 168.852 203.778 168.812 203.887 168.299C202.08 167.104 199.906 166.648 197.779 166.203L197.435 166.131C192.044 164.996 186.725 163.518 181.522 161.708C179.387 160.966 177.247 160.155 175.386 158.873C173.524 157.591 171.943 155.78 171.348 153.6C171.054 152.523 171.453 150.916 172.561 151.051C177.072 151.603 181.707 152.147 186.111 151.029C187.108 150.775 188.147 150.393 188.755 149.564C189.362 148.734 189.285 147.345 188.367 146.881ZM176.989 149.862C175.44 149.595 173.858 149.524 172.292 149.65C173.053 148.204 174.912 147.824 176.531 147.603C180.049 147.124 183.712 146.657 187.083 147.773C187.306 147.846 187.544 147.94 187.664 148.142C187.823 148.406 187.707 148.767 187.482 148.978C187.256 149.189 186.949 149.285 186.652 149.368C183.52 150.244 180.193 150.413 176.989 149.862ZM125.749 222.789C128.34 222.716 130.947 223.289 133.269 224.441C132.649 225.334 131.401 225.458 130.315 225.5L101.929 226.577C101.669 226.545 101.62 226.143 101.804 225.957C101.988 225.77 102.276 225.746 102.538 225.733L130.248 224.382C128.647 224.235 127.085 223.682 125.749 222.789ZM71.1208 128.91C70.7163 130.845 72.353 132.909 74.324 133.055C71.1009 137.912 65.2952 140.309 59.7168 142.002C56.2353 143.058 52.3733 143.925 49.0543 142.435C48.6423 142.686 49.0816 143.306 49.5164 143.516C52.7464 145.072 56.5758 144.205 60.0114 143.18C65.0498 141.676 70.2432 139.733 73.6716 135.746C73.8121 135.583 73.9519 135.415 74.0928 135.245C74.9752 134.185 75.8953 133.079 77.222 132.834C81.4933 132.044 85.0507 129.368 88.5659 126.725L88.566 126.725C89.3633 126.125 90.1584 125.527 90.9592 124.953C95.8263 121.465 101.224 118.719 106.91 116.84C107.412 116.674 108.023 116.366 107.978 115.839C100.929 116.486 94.7677 120.689 89.0865 124.911L88.8971 125.052C85.036 127.923 81.0013 130.922 76.2504 131.634C77.8022 130.41 77.4746 127.581 75.7238 126.665C73.9729 125.748 71.5253 126.976 71.1208 128.91ZM72.4362 130.093C72.1194 129.154 72.6084 128.038 73.4775 127.562C73.7242 127.427 74.0002 127.338 74.2813 127.337C75.2094 127.336 75.8871 128.329 75.8932 129.257C75.8993 130.185 75.4289 131.041 74.9717 131.849C73.9022 131.685 72.7823 131.118 72.4362 130.093ZM177.913 109.414C177.65 109.121 177.731 108.727 177.815 108.319C177.874 108.03 177.934 107.735 177.876 107.463C177.826 107.228 177.688 107.027 177.551 106.826C177.429 106.648 177.306 106.469 177.244 106.265C177.258 105.996 177.618 105.858 177.863 105.97C178.109 106.081 178.246 106.345 178.332 106.601C178.644 107.534 178.484 108.612 177.913 109.414ZM154.151 88.9387C154.808 87.3816 156.11 86.0007 157.77 85.6846C158.307 85.5823 158.29 84.6966 157.82 84.4181C157.349 84.1397 156.744 84.3043 156.25 84.5393C153.95 85.6342 152.498 88.0441 151.929 90.5272C151.36 93.0103 151.548 95.5963 151.74 98.1365L152.757 111.639C152.791 112.098 152.833 112.58 153.089 112.963C153.609 113.743 154.726 113.767 155.662 113.708L160.399 113.407C159.346 112.582 157.933 112.235 156.618 112.478C155.85 112.619 155.078 112.113 154.671 111.446C154.264 110.779 154.145 109.982 154.044 109.207C153.384 104.14 153.142 99.0178 153.321 93.9108C153.38 92.2218 153.494 90.4959 154.151 88.9387ZM166.246 208.789C165.977 208.985 165.707 208.54 165.668 208.21C163.837 192.823 163.561 177.298 163.287 161.805L163.102 151.36C163.097 151.062 163.101 150.736 163.293 150.508C163.622 150.116 164.314 150.296 164.602 150.72C164.889 151.144 164.889 151.693 164.88 152.205C164.598 167.451 164.783 182.727 166.243 197.906C166.261 198.091 166.279 198.275 166.297 198.46C166.631 201.908 166.971 205.408 166.246 208.789ZM151.027 111.797C150.626 111.577 150.131 111.701 149.692 111.831C129.398 117.833 109.151 124.022 89.2014 131.086C88.8279 131.218 88.4008 131.409 88.3152 131.796C88.2245 132.205 88.61 132.597 89.0226 132.673C89.4352 132.748 89.8526 132.601 90.2463 132.456C110.239 125.101 130.532 118.565 151.059 112.868C151.5 112.746 151.428 112.017 151.027 111.797Z" fill="#00160A"/>
<path fill-rule="evenodd" clip-rule="evenodd" d="M223.332 203.611C222.859 203.819 222.348 204.012 221.839 203.925C221.33 203.837 220.855 203.36 220.957 202.854C221.891 198.229 220.718 193.221 217.828 189.491C216.815 188.184 215.609 187.034 214.622 185.707C214 184.871 213.447 183.82 213.762 182.827C214.211 181.413 216.019 181.07 217.498 180.969C220.937 180.735 224.376 180.5 227.814 180.266C229.399 180.158 231.224 180.142 232.282 181.326C235.226 184.624 240.965 184.846 244.155 181.785C244.648 181.311 245.27 182.254 245.25 182.938C245.189 185.088 244.302 187.205 242.814 188.757C242.462 189.123 242.013 189.482 241.508 189.43C241.003 189.377 240.631 188.652 241.034 188.343C241.897 187.68 242.777 187 243.382 186.095C243.987 185.19 244.281 184.004 243.868 182.996C241.647 185.806 239.404 188.6 237.14 191.376C233.216 196.19 229.018 201.113 223.332 203.611M229.535 189.446C228.97 189.603 228.367 189.483 227.803 189.323C223.744 188.176 220.005 185.005 215.853 185.747C220.694 189.646 223.265 196.184 222.375 202.336C225.565 201.653 228.084 199.271 230.343 196.918C233.687 193.435 236.862 189.79 239.854 186C237.703 185.983 235.561 185.363 233.734 184.229C231.478 184.787 231.776 188.827 229.535 189.446M232.482 183.043C231.137 181.458 228.721 181.507 226.651 181.689C223.95 181.926 221.249 182.163 218.549 182.4C217.452 182.497 216.193 182.689 215.621 183.63C220.295 184.608 224.853 186.145 229.165 188.198C229.719 186.456 230.831 184.896 232.296 183.803C232.461 183.68 232.65 183.522 232.628 183.317C232.617 183.213 232.55 183.123 232.482 183.043V183.043Z" fill="#FFB61D"/>
<path fill-rule="evenodd" clip-rule="evenodd" d="M32.2589 145.245C28.1911 143.618 23.3436 144.1 19.6763 146.497C19.3213 146.729 18.8108 146.47 18.6351 146.084C18.4593 145.698 18.525 145.249 18.6149 144.835C19.7862 139.435 24.4522 135.303 29.6412 133.404C34.8302 131.505 40.506 131.5 46.022 131.825C46.5693 131.857 47.1414 131.9 47.6082 132.187C48.0751 132.475 48.3892 133.089 48.1565 133.586C45.9867 138.215 44.3522 143.094 43.2959 148.096C43.1247 148.907 42.2857 149.445 41.4595 149.513C40.6333 149.581 39.8238 149.275 39.074 148.922C36.7372 147.82 34.6576 146.204 32.2589 145.245M32.7239 139.781C32.3613 140.075 31.7947 139.92 31.4536 139.601C31.1125 139.281 30.9181 138.84 30.65 138.457C29.2117 136.406 25.9112 136.576 23.9548 138.141C21.9985 139.707 21.0518 142.18 20.1897 144.533C25.9292 142.04 32.9984 142.934 37.936 146.779C38.6101 147.303 39.279 147.895 40.1091 148.097C40.9393 148.299 41.985 147.936 42.1953 147.108C43.3186 142.684 44.7028 138.326 46.3384 134.065C43.2001 137.966 36.6096 136.624 32.7239 139.781M31.4749 137.424C31.7972 137.828 32.3824 137.936 32.8918 137.845C33.4012 137.753 33.864 137.499 34.3387 137.293C35.9729 136.583 37.7828 136.424 39.5349 136.099C41.2869 135.775 43.094 135.225 44.3273 133.939C41.5446 133.931 38.7618 133.922 35.979 133.914C33.1824 133.905 30.1688 133.965 27.9222 135.63C29.2898 135.68 30.6226 136.353 31.4749 137.424Z" fill="#FFB61D"/>
<path fill-rule="evenodd" clip-rule="evenodd" d="M162.946 144.872C162.939 142.424 162.933 139.976 162.926 137.528C162.924 136.826 162.923 136.123 162.921 135.42C162.919 134.935 163.001 134.328 163.461 134.178C163.81 134.064 164.193 134.314 164.356 134.642C164.519 134.971 164.517 135.354 164.512 135.72C164.461 139.136 164.41 142.552 164.359 145.968C164.352 146.459 164.27 147.063 163.81 147.236C163.042 146.801 162.948 145.753 162.946 144.872H162.946Z" fill="#00160A"/>
<path fill-rule="evenodd" clip-rule="evenodd" d="M158.059 142.606C157.704 142.762 157.522 142.178 157.576 141.795C157.772 140.424 157.969 139.051 158.302 137.707C158.51 136.87 158.809 135.99 159.5 135.474C160.191 134.959 161.378 135.049 161.716 135.842C161.879 136.226 161.811 136.665 161.736 137.076C161.271 139.619 160.644 142.132 159.861 144.596C159.828 144.7 159.792 144.809 159.713 144.885C159.52 145.07 159.172 144.946 159.039 144.714C158.905 144.483 158.923 144.198 158.944 143.932C159.262 143.909 159.411 143.535 159.487 143.225C159.799 141.96 160.111 140.695 160.423 139.43C160.666 138.446 160.887 137.325 160.322 136.483C159.742 136.841 159.524 137.564 159.351 138.223C159.004 139.55 158.656 140.876 158.309 142.203C158.267 142.361 158.209 142.54 158.059 142.606L158.059 142.606Z" fill="#00160A"/>
</svg>
