<svg width="24" height="25" viewBox="0 0 24 25" fill="none" xmlns="http://www.w3.org/2000/svg">
<path d="M0.644689 10.4399C0.645239 10.4394 0.645788 10.4388 0.646337 10.4383L10.4374 0.647527C10.8548 0.230004 11.4096 0 11.9999 0C12.5901 0 13.1449 0.229821 13.5624 0.647344L23.3484 10.4331C23.3517 10.4364 23.355 10.4399 23.3583 10.4432C24.2153 11.3052 24.2139 12.7037 23.3541 13.5635C22.9613 13.9564 22.4425 14.1841 21.8878 14.2079C21.8653 14.2101 21.8426 14.2112 21.8197 14.2112H21.4295V21.4166C21.4295 22.8424 20.2694 24.0024 18.8432 24.0024H15.0126C14.6244 24.0024 14.3094 23.6877 14.3094 23.2993V17.6502C14.3094 16.9996 13.7802 16.4704 13.1295 16.4704H10.8702C10.2195 16.4704 9.69029 16.9996 9.69029 17.6502V23.2993C9.69029 23.6877 9.3755 24.0024 8.98709 24.0024H5.1565C3.73033 24.0024 2.57024 22.8424 2.57024 21.4166V14.2112H2.20839C1.61836 14.2112 1.06349 13.9813 0.645788 13.5638C-0.214895 12.7026 -0.215262 11.3017 0.644689 10.4399V10.4399Z" fill="#F2C94C"/>
</svg>
