<svg width="23" height="20" viewBox="0 0 23 20" fill="none" xmlns="http://www.w3.org/2000/svg">
<mask id="mask0" mask-type="alpha" maskUnits="userSpaceOnUse" x="0" y="0" width="23" height="20">
<path d="M8 0C6.93913 0 5.92172 0.421427 5.17157 1.17157C4.42143 1.92172 4 2.93913 4 4C4 5.06087 4.42143 6.07828 5.17157 6.82843C5.92172 7.57857 6.93913 8 8 8C9.06087 8 10.0783 7.57857 10.8284 6.82843C11.5786 6.07828 12 5.06087 12 4C12 2.93913 11.5786 1.92172 10.8284 1.17157C10.0783 0.421427 9.06087 0 8 0ZM8 10C5.33 10 0 11.33 0 14V16H11.08C11.03 15.67 11 15.34 11 15C11 13.5 11.5 12 12.41 10.8C10.88 10.28 9.18 10 8 10ZM17 10C16.87 10 16.76 10.09 16.74 10.21L16.55 11.53C16.25 11.66 15.96 11.82 15.7 12L14.46 11.5C14.35 11.5 14.22 11.5 14.15 11.63L13.15 13.36C13.09 13.47 13.11 13.6 13.21 13.68L14.27 14.5C14.25 14.67 14.24 14.83 14.24 15C14.24 15.17 14.25 15.33 14.27 15.5L13.21 16.32C13.12 16.4 13.09 16.53 13.15 16.64L14.15 18.37C14.21 18.5 14.34 18.5 14.46 18.5L15.7 18C15.96 18.18 16.24 18.35 16.55 18.47L16.74 19.79C16.76 19.91 16.86 20 17 20H19C19.11 20 19.22 19.91 19.24 19.79L19.43 18.47C19.73 18.34 20 18.18 20.27 18L21.5 18.5C21.63 18.5 21.76 18.5 21.83 18.37L22.83 16.64C22.89 16.53 22.86 16.4 22.77 16.32L21.7 15.5C21.72 15.33 21.74 15.17 21.74 15C21.74 14.83 21.73 14.67 21.7 14.5L22.76 13.68C22.85 13.6 22.88 13.47 22.82 13.36L21.82 11.63C21.76 11.5 21.63 11.5 21.5 11.5L20.27 12C20 11.82 19.73 11.65 19.42 11.53L19.23 10.21C19.22 10.09 19.11 10 19 10H17ZM18 13.5C18.3978 13.5 18.7794 13.658 19.0607 13.9393C19.342 14.2206 19.5 14.6022 19.5 15C19.5 15.3978 19.342 15.7794 19.0607 16.0607C18.7794 16.342 18.3978 16.5 18 16.5C17.16 16.5 16.5 15.83 16.5 15C16.5 14.6022 16.658 14.2206 16.9393 13.9393C17.2206 13.658 17.6022 13.5 18 13.5Z" fill="#5F5F5F"/>
</mask>
<g mask="url(#mask0)">
<rect x="-1" y="-2" width="24" height="24" fill="#5F5F5F"/>
</g>
</svg>
