<svg width="22" height="24" viewBox="0 0 22 24" fill="none" xmlns="http://www.w3.org/2000/svg">
<path d="M11.0017 0C7.57309 0 4.77039 2.80271 4.77039 6.2313C4.77039 9.6599 7.57309 12.4626 11.0017 12.4626C14.4303 12.4626 17.233 9.6599 17.233 6.2313C17.233 2.80271 14.4303 0 11.0017 0Z" fill="#A9A9A9"/>
<path d="M21.6957 17.442C21.5324 17.0338 21.3147 16.6529 21.0698 16.2992C19.8181 14.4488 17.8862 13.2243 15.7093 12.925C15.4372 12.8978 15.1379 12.9522 14.9202 13.1155C13.7773 13.959 12.4168 14.3944 11.0018 14.3944C9.58681 14.3944 8.22629 13.959 7.08342 13.1155C6.86571 12.9522 6.56639 12.8706 6.29431 12.925C4.11743 13.2243 2.15826 14.4488 0.933785 16.2992C0.68889 16.6529 0.471181 17.0611 0.307952 17.442C0.226338 17.6053 0.253525 17.7958 0.33514 17.9591C0.552848 18.34 0.824931 18.721 1.06983 19.0475C1.45076 19.5645 1.85894 20.0271 2.32155 20.4624C2.70248 20.8434 3.13785 21.1971 3.57326 21.5509C5.7229 23.1563 8.30795 23.9998 10.9746 23.9998C13.6413 23.9998 16.2263 23.1563 18.376 21.5509C18.8113 21.2244 19.2467 20.8434 19.6277 20.4624C20.0631 20.0271 20.4984 19.5645 20.8794 19.0475C21.1515 18.6937 21.3964 18.34 21.6141 17.9591C21.7501 17.7958 21.7773 17.6053 21.6957 17.442Z" fill="#A9A9A9"/>
</svg>
